<?xml version="1.0" encoding="UTF-8"?>
<svg id="Camada_2" data-name="Camada 2" xmlns="http://www.w3.org/2000/svg" viewBox="0 0 1110.91 282.32">
  <defs>
    <style>
      .cls-1, .cls-2 {
        fill: #fff;
      }

      .cls-2, .cls-3 {
        fill-rule: evenodd;
      }

      .cls-3, .cls-4 {
        fill: #007bff;
      }
    </style>
  </defs>
  <g id="Camada_1-2" data-name="Camada 1">
    <g>
      <g>
        <path class="cls-1" d="M313.39,91.93c8.69-5,18.53-7.5,29.52-7.5,8.53,0,16.48,1.6,23.86,4.8,7.38,3.2,13.53,8.16,18.45,14.88l3.44-3.69c-5.41-6.89-12.1-12.05-20.05-15.5-7.96-3.44-16.52-5.17-25.71-5.17-11.97,0-22.67,2.71-32.1,8.12-9.43,5.41-16.85,12.96-22.26,22.63-5.41,9.68-8.12,20.83-8.12,33.46s2.71,23.78,8.12,33.46c5.41,9.68,12.83,17.26,22.26,22.75,9.43,5.5,20.13,8.24,32.1,8.24,9.18,0,17.75-1.72,25.71-5.17,7.95-3.44,14.64-8.61,20.05-15.5l-3.44-3.69c-4.92,6.56-11.07,11.48-18.45,14.76-7.38,3.28-15.34,4.92-23.86,4.92-10.99,0-20.83-2.54-29.52-7.63-8.69-5.08-15.54-12.09-20.54-21.03-5-8.94-7.5-19.31-7.5-31.12s2.5-22.18,7.5-31.12c5-8.94,11.85-15.91,20.54-20.91Z"/>
        <rect class="cls-1" x="397.53" y="25.14" width="4.92" height="182.53"/>
        <rect class="cls-1" x="429.5" y="80.49" width="4.92" height="127.18"/>
        <path class="cls-1" d="M431.96,32.52c-1.64,0-3.12.61-4.43,1.84-1.32,1.23-1.97,2.75-1.97,4.55,0,1.64.65,3.12,1.97,4.43,1.31,1.31,2.79,1.97,4.43,1.97,1.8,0,3.32-.65,4.55-1.97,1.23-1.31,1.84-2.79,1.84-4.43,0-1.8-.61-3.32-1.84-4.55-1.23-1.23-2.75-1.84-4.55-1.84Z"/>
        <path class="cls-1" d="M479.44,91.93c8.69-5,18.53-7.5,29.52-7.5,8.53,0,16.48,1.6,23.86,4.8,7.38,3.2,13.53,8.16,18.45,14.88l3.44-3.69c-5.41-6.89-12.1-12.05-20.05-15.5-7.96-3.44-16.52-5.17-25.71-5.17-11.97,0-22.67,2.71-32.1,8.12-9.43,5.41-16.85,12.96-22.26,22.63-5.41,9.68-8.12,20.83-8.12,33.46s2.71,23.78,8.12,33.46c5.41,9.68,12.83,17.26,22.26,22.75,9.43,5.5,20.13,8.24,32.1,8.24,9.18,0,17.75-1.72,25.71-5.17,7.95-3.44,14.64-8.61,20.05-15.5l-3.44-3.69c-4.92,6.56-11.07,11.48-18.45,14.76-7.38,3.28-15.34,4.92-23.86,4.92-10.99,0-20.83-2.54-29.52-7.63-8.69-5.08-15.54-12.09-20.54-21.03-5-8.94-7.5-19.31-7.5-31.12s2.5-22.18,7.5-31.12c5-8.94,11.85-15.91,20.54-20.91Z"/>
        <polygon class="cls-1" points="610.07 131.17 665.42 80.49 658.28 80.49 568.5 162.31 568.5 25.14 563.58 25.14 563.58 207.67 568.5 207.67 568.5 168.23 606.13 134.12 664.68 207.67 671.08 207.67 610.07 131.17 610.07 131.17"/>
        <path class="cls-4" d="M923.22,165.18c-4.27,3.44-9.23,6.11-14.88,7.99-5.66,1.89-11.44,2.83-17.34,2.83-10.17,0-17.8-2.17-22.88-6.52-4.08-3.48-6.52-8.53-7.32-15.13h97.85c.82-3.44,1.48-6.97,1.97-10.58.49-3.61.74-7.38.74-11.32,0-11.64-2.67-21.85-8-30.63-5.33-8.77-12.88-15.62-22.63-20.54-9.76-4.92-21.44-7.38-35.05-7.38-16.08,0-30.18,3.36-42.31,10.09-12.14,6.73-21.57,15.87-28.29,27.43-6.73,11.56-10.09,24.72-10.09,39.48,0,9.61,1.81,18.25,5.42,25.91l-24.61-24.19c-6.07,7.05-12.67,12.14-19.8,15.25-7.13,3.12-14.56,4.67-22.26,4.67-8.69,0-16.2-1.6-22.51-4.8-6.32-3.2-11.15-7.71-14.51-13.53-3.36-5.82-5.04-12.58-5.04-20.29,0-8.53,1.31-16.44,3.94-23.74,2.62-7.3,6.4-13.65,11.32-19.06,4.92-5.41,10.78-9.59,17.59-12.55,6.8-2.95,14.39-4.43,22.75-4.43s16.19,1.72,22.51,5.17c6.31,3.44,11.44,8.45,15.38,15.01l35.18-28.04c-6.07-10.49-15.25-18.53-27.55-24.11-12.3-5.57-26.41-8.36-42.31-8.36s-30.71,2.54-43.91,7.63c-13.2,5.09-24.56,12.26-34.07,21.52-9.51,9.27-16.89,20.21-22.14,32.84-5.25,12.63-7.87,26.41-7.87,41.33s3.52,28.09,10.58,39.48c7.05,11.4,17.1,20.29,30.13,26.69,13.04,6.4,28.33,9.59,45.88,9.59,15.41,0,29.44-2.42,42.07-7.26,12.12-4.64,22.87-12.43,32.27-23.34.15.24.29.48.44.71,5.9,9.1,14.14,16.16,24.72,21.16,10.58,5,23,7.5,37.27,7.5,10,0,19.88-1.31,29.64-3.94,9.75-2.62,18.82-7.05,27.18-13.28l-19.43-29.27ZM874.88,112.78c4.83-3.77,11.03-5.66,18.57-5.66,5.9,0,10.86,1.19,14.88,3.57,4.02,2.38,6.89,5.74,8.61,10.09,1.04,2.62,1.51,5.62,1.45,8.98h-54.88c.18-.53.35-1.07.54-1.6,2.38-6.48,5.98-11.6,10.82-15.37Z"/>
        <path class="cls-4" d="M1102.92,101.59c-5.33-8.94-12.3-15.78-20.91-20.54-8.61-4.75-17.75-7.13-27.43-7.13-11.81,0-22.18,2.99-31.12,8.98-2.64,1.77-5.12,3.75-7.45,5.95l2.66-12.72h-44.28l-36.16,181.05h46.74l12.84-63.74c3.37,5.15,7.7,9.14,12.99,11.96,7.87,4.18,17.14,6.27,27.8,6.27,10,0,19.35-1.93,28.04-5.78,8.69-3.85,16.36-9.26,23-16.24,6.64-6.97,11.85-15.13,15.62-24.48,3.77-9.35,5.66-19.6,5.66-30.75,0-12.95-2.67-23.9-8-32.84ZM1059.62,156.32c-2.71,5.58-6.44,9.92-11.19,13.04-4.76,3.12-10.25,4.67-16.48,4.67-8.04,0-14.27-2.29-18.7-6.89-4.43-4.59-6.64-10.74-6.64-18.45s1.35-13.86,4.06-19.43c2.71-5.57,6.48-9.96,11.32-13.16,4.83-3.2,10.29-4.8,16.36-4.8,8.03,0,14.27,2.34,18.7,7.01s6.64,10.87,6.64,18.57-1.35,13.86-4.06,19.43Z"/>
      </g>
      <g>
        <path class="cls-3" d="M30.15,195.25C11.41,174.5,0,147.01,0,116.85,0,54.24,49.19,3.11,111.03,0v35.92c-42.03,3.06-75.17,38.12-75.17,80.93,0,20.26,7.42,38.78,19.7,53l-25.4,25.4Z"/>
        <path class="cls-2" d="M195.4,203.7l-78.4,78.62-78.4-78.62,25.4-25.4c14.22,12.27,32.74,19.7,53,19.7s38.78-7.43,53-19.7l25.4,25.4Z"/>
        <path class="cls-3" d="M122.98,0c61.84,3.11,111.03,54.24,111.03,116.85,0,30.16-11.41,57.65-30.15,78.4l-25.4-25.4c12.27-14.22,19.7-32.74,19.7-53,0-42.81-33.15-77.87-75.17-80.93V0Z"/>
        <path class="cls-2" d="M117,70.3c25.75,0,46.63,20.88,46.63,46.63,0,10.7-3.61,20.56-9.67,28.43l-36.96-36.96-36.96,36.96c-6.06-7.87-9.67-17.73-9.67-28.43,0-25.75,20.88-46.63,46.63-46.63Z"/>
      </g>
    </g>
  </g>
</svg>